# xmcd CD database file
#
# Track frame offsets:
#	150
#	12772
#	25311
#	37959
#	50607
#	60176
#	63887
#	71195
#	81619
#	91607
#	101065
#	106774
#	113527
#	118741
#	126176
#	132402
#	145590
#	150656
#	161498
#	163486
#	173811
#	184138
#	193471
#	202831
#	205928
#	215533
#	229578
#	234353
#	248648
#	253401
#	258218
#	262863
#	268809
#	275968
#	281325
#	295335
#	309380
#	323381
#	326207
#	327878
#	332890
#
# Disc length: 4476 seconds
#
# Revision: 0
# Processed by: cddbd v1.5.1PL0 Copyright (c) Steve Scherf et al.
# Submitted via: CDex 1.51
#
DISCID=5c117a29
DTITLE=Sonoton Authentic Series - SAS 069 - Authentic Canada
DYEAR=1999
DGENRE=Contentum
TTITLE0=The East Coast - East coast medley 1
TTITLE1=The East Coast - East coast medley 2
TTITLE2=The East Coast - Medley of Cape Breton Jigs 1
TTITLE3=The East Coast - Medley of Cape Breton Jigs 2
TTITLE4=The East Coast - Come by chance 1
TTITLE5=The East Coast - Come by chance 2
TTITLE6=The East Coast - The 74th highlanders march
TTITLE7=The East Coast - Lochnagar
TTITLE8=The East Coast - Crossing to Ireland
TTITLE9=French Canada - Quebec - Quebec Jigs 1
TTITLE10=French Canada - Quebec - Quebec Jigs 2
TTITLE11=French Canada - Quebec - La bastrange
TTITLE12=French Canada - Quebec - Clogging feet
TTITLE13=French Canada - Quebec - Un Canadien errant
TTITLE14=French Canada - Quebec - V'la le bon vent
TTITLE15=Central Canada - Ontario - Ontario medley
TTITLE16=Central Canada - Ontario - When the shantyboy comes down
TTITLE17=Central Canada - Ontario - Mary Ann 1
TTITLE18=Central Canada - Ontario - Mary Ann 2
TTITLE19=The West Canada - Prairie sweetheart 1
TTITLE20=The West Canada - Prairie sweetheart 2 
TTITLE21=The West Canada - Rails west 
TTITLE22=The West Canada -  Gather round the stove, boys 1
TTITLE23=The West Canada -  Gather round the stove, boys 2
TTITLE24=The West Canada -  North for the gold
TTITLE25=Aboriginal Music - Drum cirkle 1
TTITLE26=Aboriginal Music - Drum cirkle 2
TTITLE27=Aboriginal Music - Round dance 1
TTITLE28=Aboriginal Music - Round dance 2
TTITLE29=Aboriginal Music - Round dance 3
TTITLE30=Aboriginal Music - Chant 1
TTITLE31=Aboriginal Music - Chant 2
TTITLE32=Aboriginal Music - Chant 3
TTITLE33=Aboriginal Music - Chant 4
TTITLE34=Aboriginal Music - Metis fiddle medley 1
TTITLE35=Aboriginal Music - Metis fiddle medley 2
TTITLE36=Aboriginal Music - Metis fiddle medley 3
TTITLE37=Aboriginal Music - Throat sing 1
TTITLE38=Aboriginal Music - Throat sing 2
TTITLE39=Aboriginal Music - Throat sing 3
TTITLE40=Aboriginal Music - Throat sing 4
EXTD=YEAR: 1999
EXTT0=
EXTT1=
EXTT2=
EXTT3=
EXTT4=
EXTT5=
EXTT6=
EXTT7=
EXTT8=
EXTT9=
EXTT10=
EXTT11=
EXTT12=
EXTT13=
EXTT14=
EXTT15=
EXTT16=
EXTT17=
EXTT18=
EXTT19=
EXTT20=
EXTT21=
EXTT22=
EXTT23=
EXTT24=
EXTT25=
EXTT26=
EXTT27=
EXTT28=
EXTT29=
EXTT30=
EXTT31=
EXTT32=
EXTT33=
EXTT34=
EXTT35=
EXTT36=
EXTT37=
EXTT38=
EXTT39=
EXTT40=
PLAYORDER=
